<svg xmlns="http://www.w3.org/2000/svg" xmlns:xlink="http://www.w3.org/1999/xlink" version="1.1" width="940" height="788" viewBox="0 0 940 788" xml:space="preserve">
<desc>Created with Fabric.js 3.5.0</desc>
<defs>
</defs>
<rect x="0" y="0" width="100%" height="100%" fill="#f5feff"/>
<g transform="matrix(25 0 0 25 621.7869 394)" id="870595">
<g style="" vector-effect="non-scaling-stroke">
		<g transform="matrix(1 0 0 1 -6 -1)" id="716333">
<path style="stroke: none; stroke-width: 1; stroke-dasharray: none; stroke-linecap: butt; stroke-dashoffset: 0; stroke-linejoin: miter; stroke-miterlimit: 4; is-custom-font: none; font-file-url: none; fill: rgb(0,0,0); fill-rule: nonzero; opacity: 1;" transform=" translate(-6, -11)" d="M 10 12.6 V 3 c 0 -2.2 -1.8 -4 -4 -4 S 2 0.8 2 3 v 9.6 c -1.2 1.1 -2 2.7 -2 4.4 c 0 3.3 2.7 6 6 6 s 6 -2.7 6 -6 C 12 15.2 11.2 13.7 10 12.6 z M 6 21 c -2.2 0 -4 -1.8 -4 -4 c 0 -1.5 0.8 -2.8 2 -3.4 V 11 h 2 v -1 H 4 V 8 h 2 V 7 H 4 V 5 h 2 V 4 H 4 V 3 c 0 -1.1 0.9 -2 2 -2 s 2 0.9 2 2 v 10.6 c 1.2 0.7 2 2 2 3.4 C 10 19.2 8.2 21 6 21 z" stroke-linecap="round"/>
</g>
		<g transform="matrix(1 0 0 1 -4.5 3.5)" id="187511">
<path style="stroke: none; stroke-width: 1; stroke-dasharray: none; stroke-linecap: butt; stroke-dashoffset: 0; stroke-linejoin: miter; stroke-miterlimit: 4; is-custom-font: none; font-file-url: none; fill: rgb(0,0,0); fill-rule: nonzero; opacity: 1;" transform=" translate(-7.5, -15.5)" d="M 6 14 v 1 c 1.1 0 2 0.9 2 2 h 1 C 9 15.3 7.7 14 6 14 z" stroke-linecap="round"/>
</g>
		<g transform="matrix(1 0 0 1 7 -3)" id="586104">
<path style="stroke: none; stroke-width: 1; stroke-dasharray: none; stroke-linecap: butt; stroke-dashoffset: 0; stroke-linejoin: miter; stroke-miterlimit: 4; is-custom-font: none; font-file-url: none; fill: rgb(0,0,0); fill-rule: nonzero; opacity: 1;" transform=" translate(-19, -9)" d="M 21 10 V 3 h -4 v 7 h -3 l 5 5 l 5 -5 H 21 z M 16.4 11 H 18 V 4 h 2 v 7 h 1.6 L 19 13.6 L 16.4 11 z" stroke-linecap="round"/>
</g>
</g>
</g>
</svg>